<svg width="234" height="64" viewBox="0 0 234 64" fill="none" xmlns="http://www.w3.org/2000/svg">
  <rect width="234" height="64" rx="16" fill="transparent"/>
  <g transform="translate(8 8)">
    <path d="M7.5 22.5C7.5 19.4 9.4 16.5 12.3 15.3L28.1 8.9C32.3 7.1 36.8 10.3 36.8 14.9V17.2C36.8 20.3 34.9 23.1 32 24.3L16.2 30.7C12 32.5 7.5 29.4 7.5 24.8V22.5Z" fill="#4F46E5"/>
    <path d="M21.2 32.8C21.2 29.7 23.1 26.8 26 25.6L41.8 19.2C46 17.4 50.5 20.6 50.5 25.2V27.5C50.5 30.6 48.6 33.4 45.7 34.6L29.9 41C25.7 42.8 21.2 39.7 21.2 35.1V32.8Z" fill="#2563EB"/>
    <circle cx="29" cy="25" r="3.4" fill="#FACC15"/>
  </g>
  <text x="72" y="38" fill="#0F172A" font-family="Inter, Segoe UI, Arial, sans-serif" font-size="33" font-weight="800" letter-spacing="0.5">AKURAT</text>
</svg>